<svg width="32" height="32" viewBox="0 0 32 32" fill="none" xmlns="http://www.w3.org/2000/svg">
<rect width="32" height="32" rx="16" fill="white"/>
<g clip-path="url(#clip0_2455_3289)">
<path fill-rule="evenodd" clip-rule="evenodd" d="M16 22.4C16.2773 22.3999 16.6715 22.1611 16.9995 21.9579C17.8996 21.4002 18.7591 20.7781 19.5711 20.096C22.2955 17.6976 23.5 15.2994 23.5 13.1975C23.5 11.1884 21.79 9.50001 20.05 9.50001H20.0471C19.4878 9.49893 18.9356 9.62526 18.4324 9.86938C17.9496 10.1077 17 11 17 11L15.9998 12L15 11C15 11 14.0505 10.1076 13.5678 9.86938C13.0646 9.62523 12.5123 9.4989 11.953 9.50001L11.95 9.50001C10.2096 9.50001 8.5 11.1873 8.5 13.1975C8.5 15.2996 9.70455 17.6978 12.4289 20.0963C13.2407 20.7783 14.1 21.4003 15 21.9579C15.3279 22.1611 15.7227 22.4001 16 22.4ZM11.4508 21.2336C8.53906 18.6745 7 15.8957 7 13.1975C7 10.4287 9.313 8.00001 11.95 8.00001C12.7388 7.99845 13.5176 8.17698 14.227 8.52201C14.4749 8.64399 14.7108 8.7868 14.9324 8.94846C15.3419 9.24715 15.7027 9.61017 16 10.025C16.2974 9.61022 16.6582 9.24722 17.0677 8.94854C17.2894 8.78686 17.5253 8.64402 17.7732 8.52201C18.4825 8.17703 19.2612 7.9985 20.05 8.00001C22.6868 8.00001 25 10.43 25 13.1975C25 15.8955 23.4609 18.6742 20.5492 21.2334C19.4435 22.1635 18.2553 22.9896 16.9995 23.7014C16.9995 23.7014 16.4074 23.9999 16 24C15.5924 24.0001 15 23.7014 15 23.7014C13.7444 22.9897 12.5563 22.1637 11.4508 21.2336Z" fill="#580F78"/>
</g>
<defs>
<clipPath id="clip0_2455_3289">
<rect width="24" height="24" fill="white" transform="translate(4 4)"/>
</clipPath>
</defs>
</svg>
