<svg width="32" height="32" viewBox="0 0 32 32" fill="none" xmlns="http://www.w3.org/2000/svg">
<rect width="32" height="32" rx="16" fill="white"/>
<g clip-path="url(#clip0_2455_3287)">
<path fill-rule="evenodd" clip-rule="evenodd" d="M12 13C12.8742 13 13.6611 12.6261 14.2094 12.0294L19.1319 15.1174C19.0462 15.3965 19 15.6928 19 16C19 16.3072 19.0462 16.6035 19.1319 16.8826L14.2094 19.9706C13.6611 19.3739 12.8742 19 12 19C10.3431 19 9 20.3431 9 22C9 23.6569 10.3431 25 12 25C13.6569 25 15 23.6569 15 22C15 21.758 14.9713 21.5227 14.9172 21.2973L19.9181 18.1601C20.4576 18.6801 21.1915 19 22 19C23.6569 19 25 17.6569 25 16C25 14.3431 23.6569 13 22 13C21.1915 13 20.4576 13.3199 19.9181 13.8399L14.9172 10.7027C14.9713 10.4773 15 10.242 15 10C15 8.34315 13.6569 7 12 7C10.3431 7 9 8.34315 9 10C9 11.6569 10.3431 13 12 13ZM12 11.5C12.8284 11.5 13.5 10.8284 13.5 10C13.5 9.17157 12.8284 8.5 12 8.5C11.1716 8.5 10.5 9.17157 10.5 10C10.5 10.8284 11.1716 11.5 12 11.5ZM12 23.5C12.8284 23.5 13.5 22.8284 13.5 22C13.5 21.1716 12.8284 20.5 12 20.5C11.1716 20.5 10.5 21.1716 10.5 22C10.5 22.8284 11.1716 23.5 12 23.5ZM23.5 16C23.5 16.8284 22.8284 17.5 22 17.5C21.1716 17.5 20.5 16.8284 20.5 16C20.5 15.1716 21.1716 14.5 22 14.5C22.8284 14.5 23.5 15.1716 23.5 16Z" fill="#580F78"/>
</g>
<defs>
<clipPath id="clip0_2455_3287">
<rect width="24" height="24" fill="white" transform="translate(4 4)"/>
</clipPath>
</defs>
</svg>
